<svg width="23" height="23" viewBox="0 0 23 23" fill="none" xmlns="http://www.w3.org/2000/svg">
<path d="M0.325966 0.816122C0.0671176 0.912311 -0.0647437 1.20012 0.0314452 1.45897C0.127634 1.71782 0.415448 1.84968 0.674296 1.75349L0.500131 1.28481L0.325966 0.816122ZM17.5886 22.5324C17.697 22.7864 17.9907 22.9045 18.2447 22.7962L22.3839 21.0307C22.6379 20.9223 22.756 20.6286 22.6477 20.3746C22.5393 20.1206 22.2456 20.0025 21.9916 20.1109L18.3123 21.6802L16.743 18.0009C16.6346 17.7469 16.3409 17.6288 16.0869 17.7371C15.8329 17.8455 15.7148 18.1392 15.8231 18.3932L17.5886 22.5324ZM0.500131 1.28481L0.674296 1.75349C10.462 -1.88365 23.2213 8.12854 17.5846 22.1498L18.0485 22.3362L18.5124 22.5227C24.4741 7.69302 10.9246 -3.12235 0.325966 0.816122L0.500131 1.28481Z" fill="white"/>
</svg>
